{"title":"Never.Talk.To.Stranges.1995.iNTERNAL.DVDRip.XviD-EXViDiNT","uid":7058291,"size":735731550,"categoryP":"video","categoryS":"movies","magnet":"?xt=urn:btih:37a08b017e8949d86b83cb22d5799a55f47b7d3e&amp;dn=Never.Talk.To.Stranges.1995.iNTERNAL.DVDRip.XviD-EXViDiNT&amp;tr=udp%3A%2F%2Ftracker.openbittorrent.com%3A80&amp;tr=udp%3A%2F%2Fopen.demonii.com%3A1337&amp;tr=udp%3A%2F%2Ftracker.coppersurfer.tk%3A6969&amp;tr=udp%3A%2F%2Fexodus.desync.com%3A6969","seeders":0,"leechers":2,"uploader":"TvTeam","files":4,"time":1330238549,"description":". \n &lt;a href=&quot;\nhttp://www.torrenting.com&quot; rel=&quot;nofollow&quot; target=&quot;_NEW&quot;&gt;\nhttp://www.torrenting.com&lt;/a&gt;          :     Once &amp; For all ;)\n\n\n               www . Torrenting . Com \n\n(((((((((((((= Enjoy No RAR releases =))))))))))))))))))))\n\n\n...................................NFO:....................................\n\n.                                                                                                     \n       \n     \n     \n       \n       \n     \n     \n                                         \n                                         \n                EXVID                    \n                                         \n         \n                                         \n         Filled the Archives             \n                                         \n         \n                                         \n                With:                    \n                                         \n         \n                                         \n                                    \n     E240                           \n                                    \n     SP               (C) 2009      \n                                         \n     \n     \n     \n                                                                                  \n                                                                                   \n             Never.Talk.To.Stranges.1995.iNTERNAL.DVDRip.XviD-EXViDiNT              \n                                                                                   \n                                                                                  \n     \n                                                                                               \nEXViD aims to iNTERNAL those releases which have been lost in the archives.\nEXViD aims to PRE non-internal releases which have poor sources and are likely skipped by others. &lt;a href=&quot;\nhttp://www.imdb.com/title/tt0113965/&quot; rel=&quot;nofollow&quot; target=&quot;_NEW&quot;&gt;\nhttp://www.imdb.com/title/tt0113965/&lt;/a&gt;\nSubtitles: EN, ES, PT, ZH, KO, TH\nDate: 2012.02\n\nDirector: Peter Hall\n\nGenres: Crime | Drama | Romance | Thriller\n\nPlot:\nSarah Taylor, a police psychologist, meets a mysterious and seductive young man, Tony Ramirez,\nand falls in love with him. As a cause of this relationship she changes her personality when she\nbegins to receive anonymous telefon calls.\n\nCast:\nRebecca De Mornay\t...\tDr. Sarah Taylor\nAntonio Banderas\t...\tTony Ramirez\nDennis Miller\t...\tCliff Raddison\nLen Cariou\t...\tHenry Taylor\nHarry Dean Stanton\t...\tMax Cheski\nEugene Lipinski\t...\tDudakoff\nMartha Burns\t...\tMaura\nBeau Starr\t...\tGrogan\nPhillip Jarrett\t...\tSpatz\nTim Kelleher\t...\tWabash\nEmma Corosky\t...\tYoung Sarah\nSusan Coyne\t...\tAlison\nJoseph R. Gannascoli\t...\tCarnival Attendant\nReg Dreger\t...\tFlight Attendant\nFrances Hyland\t...\tMrs. Slotnick\n\nStats:\nFormat                                   : AVI\nFormat/Info                              : Audio Video Interleave\nFile size                                : 702 MiB\nDuration                                 : 1h 26mn\nOverall bit rate mode                    : Variable\nOverall bit rate                         : 1 140 Kbps\nWriting library                          : VirtualDub build 32842/release\n\nVideo\nID                                       : 0\nFormat                                   : MPEG-4 Visual\nFormat profile                           : Advanced Simple@L5\nFormat settings, BVOP                    : 2\nFormat settings, QPel                    : No\nFormat settings, GMC                     : No warppoints\nFormat settings, Matrix                  : Default (H.263)\nCodec ID                                 : XVID\nCodec ID/Hint                            : XviD\nDuration                                 : 1h 26mn\nBit rate                                 : 993 Kbps\nWidth                                    : 640 pixels\nHeight                                   : 352 pixels\nDisplay aspect ratio                     : 16:9\nFrame rate                               : 23.976 fps\nColor space                              : YUV\nChroma subsampling                       : 4:2:0\nBit depth                                : 8 bits\nScan type                                : Progressive\nCompression mode                         : Lossy\nBits/(Pixel*Frame)                       : 0.184\nStream size                              : 611 MiB (87%)\nWriting library                          : XviD 64\n\nAudio\nID                                       : 1\nFormat                                   : MPEG Audio\nFormat version                           : Version 1\nFormat profile                           : Layer 3\nMode                                     : Joint stereo\nMode extension                           : MS Stereo\nCodec ID                                 : 55\nCodec ID/Hint                            : MP3\nDuration                                 : 1h 26mn\nBit rate mode                            : Variable\nBit rate                                 : 134 Kbps\nChannel(s)                               : 2 channels\nSampling rate                            : 48.0 KHz\nCompression mode                         : Lossy\nDelay relative to video                  : 144ms\nStream size                              : 82.7 MiB (12%)\nAlignment                                : Split accross interleaves\nInterleave, duration                     : 24 ms (0.58 video frame)\nInterleave, preload duration             : 601 ms\n\n\n\nRelease notes:\nEnjoy!\n\nLooking for:\n75TB+ Archives\nDUTCH/FLEMiSH Archives\n                                                                                                    \nGreets: CRBS EPiSODE FiCO FLS iLS KLASSiGER LiPSYNC MADE NODLABS RUNNER SPRiNTER      \n   \n\n                                                                    ASCII DONE BY XX^NFO 2oo9     \n \n\nRLS-Crc: 415243414445:42EECD90","torrent":{"xt":"urn:btih:37a08b017e8949d86b83cb22d5799a55f47b7d3e","amp;dn":"Never.Talk.To.Stranges.1995.iNTERNAL.DVDRip.XviD-EXViDiNT","amp;tr":["udp%3A%2F%2Ftracker.openbittorrent.com%3A80","udp%3A%2F%2Fopen.demonii.com%3A1337","udp%3A%2F%2Ftracker.coppersurfer.tk%3A6969","udp%3A%2F%2Fexodus.desync.com%3A6969"],"infoHash":"37a08b017e8949d86b83cb22d5799a55f47b7d3e","infoHashBuffer":{"type":"Buffer","data":[55,160,139,1,126,137,73,216,107,131,203,34,213,121,154,85,244,123,125,62]},"announce":[],"urlList":[]}}